<svg xmlns="http://www.w3.org/2000/svg" xmlns:xlink="http://www.w3.org/1999/xlink" width="500" zoomAndPan="magnify" viewBox="0 0 375 374.999991" height="500" preserveAspectRatio="xMidYMid meet" version="1.0"><defs><filter x="0%" y="0%" width="100%" height="100%" id="100b898582"><feColorMatrix values="0 0 0 0 1 0 0 0 0 1 0 0 0 0 1 0 0 0 1 0" color-interpolation-filters="sRGB"/></filter><mask id="b452b6ab00"><g filter="url(#100b898582)"><rect x="-37.5" width="450" fill="#000000" y="-37.499999" height="449.999989" fill-opacity="0.8784"/></g></mask><clipPath id="d1c0d056d5"><path d="M 0.246094 0.882812 L 210.703125 0.882812 L 210.703125 211.632812 L 0.246094 211.632812 Z M 0.246094 0.882812 " clip-rule="nonzero"/></clipPath><clipPath id="8d3fb5a68b"><rect x="0" width="212" y="0" height="213"/></clipPath><mask id="1a56d58726"><g filter="url(#100b898582)"><rect x="-37.5" width="450" fill="#000000" y="-37.499999" height="449.999989" fill-opacity="0.8784"/></g></mask><clipPath id="5a16d7cf72"><path d="M 1.011719 1.066406 L 219.261719 1.066406 L 219.261719 219.316406 L 1.011719 219.316406 Z M 1.011719 1.066406 " clip-rule="nonzero"/></clipPath><clipPath id="a5b4d7c36d"><rect x="0" width="220" y="0" height="220"/></clipPath></defs><g mask="url(#b452b6ab00)"><g transform="matrix(1, 0, 0, 1, 54, 111)"><g clip-path="url(#8d3fb5a68b)"><g clip-path="url(#d1c0d056d5)"><path fill="#7643fd" d="M 105.621094 211.632812 C 133.769531 211.632812 160.230469 200.671875 180.132812 180.769531 C 200.035156 160.867188 210.996094 134.40625 210.996094 106.257812 C 210.996094 78.109375 200.035156 51.648438 180.132812 31.746094 C 160.230469 11.84375 133.769531 0.882812 105.621094 0.882812 C 77.476562 0.882812 51.015625 11.84375 31.109375 31.746094 C 11.207031 51.648438 0.246094 78.109375 0.246094 106.257812 C 0.246094 121.933594 4.644531 136.472656 4.84375 137.132812 C 6.597656 142.875 8.863281 148.5 11.578125 153.867188 L 1.25 206.078125 C 1.046875 207.109375 1.363281 208.171875 2.097656 208.921875 C 2.832031 209.671875 3.890625 210.011719 4.921875 209.832031 L 58.390625 200.457031 C 64.046875 203.304688 69.984375 205.648438 76.050781 207.421875 C 76.644531 207.59375 90.683594 211.632812 105.621094 211.632812 Z M 105.621094 211.632812 " fill-opacity="1" fill-rule="nonzero"/></g></g></g></g><g mask="url(#1a56d58726)"><g transform="matrix(1, 0, 0, 1, 102, 51)"><g clip-path="url(#a5b4d7c36d)"><g clip-path="url(#5a16d7cf72)"><path fill="#ff6600" d="M 110.136719 219.316406 C 80.988281 219.316406 53.585938 207.964844 32.972656 187.355469 C 12.363281 166.742188 1.011719 139.339844 1.011719 110.191406 C 1.011719 81.042969 12.363281 53.640625 32.972656 33.027344 C 53.585938 12.417969 80.988281 1.066406 110.136719 1.066406 C 139.285156 1.066406 166.6875 12.417969 187.300781 33.027344 C 207.910156 53.640625 219.261719 81.042969 219.261719 110.191406 C 219.261719 126.425781 214.707031 141.480469 214.5 142.164062 C 212.683594 148.113281 210.339844 153.9375 207.527344 159.496094 L 218.222656 213.5625 C 218.433594 214.628906 218.105469 215.730469 217.34375 216.507812 C 216.585938 217.285156 215.488281 217.636719 214.417969 217.449219 L 159.046875 207.746094 C 153.191406 210.691406 147.042969 213.117188 140.761719 214.953125 C 140.144531 215.132812 125.605469 219.316406 110.136719 219.316406 Z M 110.136719 219.316406 " fill-opacity="1" fill-rule="nonzero"/></g></g></g></g></svg>